<?xml version="1.0" encoding="UTF-8" standalone="no"?>
<svg width="50px" height="50px" viewBox="0 0 50 50" version="1.1" xmlns="http://www.w3.org/2000/svg" xmlns:xlink="http://www.w3.org/1999/xlink" xmlns:sketch="http://www.bohemiancoding.com/sketch/ns">
    <!-- Generator: Sketch 3.3.3 (12072) - http://www.bohemiancoding.com/sketch -->
    <title>r arrow</title>
    <desc>Created with Sketch.</desc>
    <defs></defs>
    <g id="Page-1" stroke="none" stroke-width="1" fill="none" fill-rule="evenodd" sketch:type="MSPage">
        <path d="M50,25 C50,38.8071194 38.8071194,50 25,50 C11.1928806,50 -2.84217094e-14,38.8071194 0,25 C0,11.1928806 11.1928806,-7.10542736e-15 25,-7.10542736e-15 C38.8071194,0 50,11.1928806 50,25 Z M6,25 C6,35.4934108 14.5065892,44 25,44 C35.4934108,44 44,35.4934108 44,25 C44,14.5065892 35.4934108,6 25,6 C14.5065892,6 6,14.5065892 6,25 Z M14.5,20 L25.5,20 L25.5,14.5 L36.5,25 L25.5,35.5 L25.5,30 L14.5,30 L14.5,20 Z" id="r-arrow" fill="#000000" sketch:type="MSShapeGroup"></path>
    </g>
</svg>