<?xml version="1.0" encoding="UTF-8" standalone="no"?>
<svg width="50px" height="50px" viewBox="0 0 50 50" version="1.1" xmlns="http://www.w3.org/2000/svg" xmlns:xlink="http://www.w3.org/1999/xlink" xmlns:sketch="http://www.bohemiancoding.com/sketch/ns">
    <!-- Generator: Sketch 3.3.3 (12072) - http://www.bohemiancoding.com/sketch -->
    <title>up arrow</title>
    <desc>Created with Sketch.</desc>
    <defs></defs>
    <g id="Page-1" stroke="none" stroke-width="1" fill="none" fill-rule="evenodd" sketch:type="MSPage">
        <path d="M0,25 C0,11.1928806 11.1928806,-7.10542736e-15 25,-7.10542736e-15 C38.8071194,0 50,11.1928806 50,25 C50,38.8071194 38.8071194,50 25,50 C11.1928806,50 0,38.8071194 0,25 Z M6,25 C6,35.4934108 14.5065892,44 25,44 C35.4934108,44 44,35.4934108 44,25 C44,14.5065892 35.4934108,6 25,6 C14.5065892,6 6,14.5065892 6,25 Z M30,35.5 L20,35.5 L20,24.5 L14.5,24.5 L25,13.5 L35.5,24.5 L30,24.5 L30,35.5 Z" id="up-arrow" fill="#000000" sketch:type="MSShapeGroup"></path>
    </g>
</svg>