<svg xmlns="http://www.w3.org/2000/svg"><symbol viewBox="0 0 50 50" id="icon-clock"><title>clock</title><desc>Created with Sketch.</desc> <!-- Generator: Sketch 3.3.3 (12072) - http://www.bohemiancoding.com/sketch -->    <g id="clock-Page-1" stroke="none" stroke-width="1" fill="none" fill-rule="evenodd" sketch:type="MSPage"> <path d="M0,25 C0,11.1928806 11.1928806,0 25,0 C38.8071194,0 50,11.1928806 50,25 C50,38.8071194 38.8071194,50 25,50 C11.1928806,50 0,38.8071194 0,25 Z M26,12 L26,25.7637629 L28.1313617,25.7637629 L37,25.7637629 L37,29.7637629 L22,29.7637629 L22,27 L22,25.7637629 L22,12 L26,12 Z M44,25 C44,14.5065892 35.4934108,6 25,6 C14.5065892,6 6,14.5065892 6,25 C6,35.4934108 14.5065892,44 25,44 C35.4934108,44 44,35.4934108 44,25 Z" id="clock-clock" fill="#000000" sketch:type="MSShapeGroup"/> </g> </symbol><symbol viewBox="0 0 50 50" id="icon-down arrow"><title>down arrow</title><desc>Created with Sketch.</desc> <!-- Generator: Sketch 3.3.3 (12072) - http://www.bohemiancoding.com/sketch -->    <g id="down arrow-Page-1" stroke="none" stroke-width="1" fill="none" fill-rule="evenodd" sketch:type="MSPage"> <path d="M25,50 C11.1928806,50 0,38.8071194 0,25 C0,11.1928806 11.1928806,-2.84217094e-14 25,0 C38.8071194,0 50,11.1928806 50,25 C50,38.8071194 38.8071194,50 25,50 Z M25,6 C14.5065892,6 6,14.5065892 6,25 C6,35.4934108 14.5065892,44 25,44 C35.4934108,44 44,35.4934108 44,25 C44,14.5065892 35.4934108,6 25,6 Z M30,14.5 L30,25.5 L35.5,25.5 L25,36.5 L14.5,25.5 L20,25.5 L20,14.5 L30,14.5 Z" id="down arrow-down-arrow" fill="#000000" sketch:type="MSShapeGroup"/> </g> </symbol><symbol viewBox="0 0 50 50" id="icon-l arrow"><title>l arrow</title><desc>Created with Sketch.</desc> <!-- Generator: Sketch 3.3.3 (12072) - http://www.bohemiancoding.com/sketch -->    <g id="l arrow-Page-1" stroke="none" stroke-width="1" fill="none" fill-rule="evenodd" sketch:type="MSPage"> <path d="M50,25 C50,38.8071194 38.8071194,50 25,50 C11.1928806,50 0,38.8071194 0,25 C0,11.1928806 11.1928806,0 25,0 C38.8071194,0 50,11.1928806 50,25 Z M6,25 C6,35.4934108 14.5065892,44 25,44 C35.4934108,44 44,35.4934108 44,25 C44,14.5065892 35.4934108,6 25,6 C14.5065892,6 6,14.5065892 6,25 Z M24.5,20 L35.5,20 L35.5,30 L24.5,30 L24.5,35.5 L13.5,25 L24.5,14.5 L24.5,20 Z" id="l arrow-l-arrow" fill="#000000" sketch:type="MSShapeGroup"/> </g> </symbol><symbol viewBox="0 0 50 50" id="icon-r arrow"><title>r arrow</title><desc>Created with Sketch.</desc> <!-- Generator: Sketch 3.3.3 (12072) - http://www.bohemiancoding.com/sketch -->    <g id="r arrow-Page-1" stroke="none" stroke-width="1" fill="none" fill-rule="evenodd" sketch:type="MSPage"> <path d="M50,25 C50,38.8071194 38.8071194,50 25,50 C11.1928806,50 -2.84217094e-14,38.8071194 0,25 C0,11.1928806 11.1928806,-7.10542736e-15 25,-7.10542736e-15 C38.8071194,0 50,11.1928806 50,25 Z M6,25 C6,35.4934108 14.5065892,44 25,44 C35.4934108,44 44,35.4934108 44,25 C44,14.5065892 35.4934108,6 25,6 C14.5065892,6 6,14.5065892 6,25 Z M14.5,20 L25.5,20 L25.5,14.5 L36.5,25 L25.5,35.5 L25.5,30 L14.5,30 L14.5,20 Z" id="r arrow-r-arrow" fill="#000000" sketch:type="MSShapeGroup"/> </g> </symbol><symbol viewBox="0 0 49 50" id="icon-tags"><title>tags</title><desc>Created with Sketch.</desc> <!-- Generator: Sketch 3.3.3 (12072) - http://www.bohemiancoding.com/sketch -->    <g id="tags-Page-1" stroke="none" stroke-width="1" fill="none" fill-rule="evenodd" sketch:type="MSPage"> <path d="M41.5455561,19.1143287 L23.239524,46.5890739 L0,31.8794568 L18.3060332,4.40471227 L37.3838082,0.566106062 L41.5455561,19.1143287 Z M32.4720084,17.1654772 C33.8410903,15.1106805 33.2419157,12.3631936 31.1337144,11.028793 C29.0255131,9.69439247 26.2066184,10.2783888 24.8375365,12.3331855 C23.4684546,14.3879822 24.0676291,17.1354691 26.1758304,18.4698697 C28.2840317,19.8042702 31.1029264,19.2202739 32.4720084,17.1654772 Z M49,22.0913609 L30.6939679,49.5661061 L27.5249419,47.5602492 L45.830974,20.085504 L42.2367372,4.06658455 L44.8382521,3.54313823 L49,22.0913609 Z" id="tags-tags" fill="#000000" sketch:type="MSShapeGroup"/> </g> </symbol><symbol viewBox="0 0 50 50" id="icon-up arrow"><title>up arrow</title><desc>Created with Sketch.</desc> <!-- Generator: Sketch 3.3.3 (12072) - http://www.bohemiancoding.com/sketch -->    <g id="up arrow-Page-1" stroke="none" stroke-width="1" fill="none" fill-rule="evenodd" sketch:type="MSPage"> <path d="M0,25 C0,11.1928806 11.1928806,-7.10542736e-15 25,-7.10542736e-15 C38.8071194,0 50,11.1928806 50,25 C50,38.8071194 38.8071194,50 25,50 C11.1928806,50 0,38.8071194 0,25 Z M6,25 C6,35.4934108 14.5065892,44 25,44 C35.4934108,44 44,35.4934108 44,25 C44,14.5065892 35.4934108,6 25,6 C14.5065892,6 6,14.5065892 6,25 Z M30,35.5 L20,35.5 L20,24.5 L14.5,24.5 L25,13.5 L35.5,24.5 L30,24.5 L30,35.5 Z" id="up arrow-up-arrow" fill="#000000" sketch:type="MSShapeGroup"/> </g> </symbol></svg>